<?xml version="1.0" encoding="UTF-8" standalone="no"?>
<!-- Generator: Adobe Illustrator 16.0.0, SVG Export Plug-In . SVG Version: 6.00 Build 0)  -->

<svg
   xmlns:dc="http://purl.org/dc/elements/1.1/"
   xmlns:cc="http://creativecommons.org/ns#"
   xmlns:rdf="http://www.w3.org/1999/02/22-rdf-syntax-ns#"
   xmlns:svg="http://www.w3.org/2000/svg"
   xmlns="http://www.w3.org/2000/svg"
   xmlns:sodipodi="http://sodipodi.sourceforge.net/DTD/sodipodi-0.dtd"
   xmlns:inkscape="http://www.inkscape.org/namespaces/inkscape"
   version="1.1"
   x="0px"
   y="0px"
   width="1152.8849"
   height="735.43994"
   viewBox="0 0 101.32553 64.63684"
   xml:space="preserve"
   inkscape:version="0.48.5 r10040"
   sodipodi:docname="legionboard.svg"
   inkscape:export-xdpi="122.40598"
   inkscape:export-ydpi="122.40598"
   id="svg2"><metadata
     id="metadata3"><rdf:RDF><cc:Work
         rdf:about=""><dc:format>image/svg+xml</dc:format><dc:type
           rdf:resource="http://purl.org/dc/dcmitype/StillImage" /><dc:title>LegionBoard</dc:title></cc:Work></rdf:RDF></metadata><defs
     id="defs6" /><sodipodi:namedview
     pagecolor="#ffffff"
     bordercolor="#666666"
     borderopacity="1"
     objecttolerance="10"
     gridtolerance="10"
     guidetolerance="10"
     inkscape:pageopacity="0"
     inkscape:pageshadow="2"
     inkscape:window-width="1366"
     inkscape:window-height="715"
     id="namedview45"
     showgrid="false"
     inkscape:zoom="0.70710678"
     inkscape:cx="833.28882"
     inkscape:cy="370.22036"
     inkscape:window-x="0"
     inkscape:window-y="31"
     inkscape:window-maximized="1"
     fit-margin-top="0"
     fit-margin-left="0"
     fit-margin-right="0"
     fit-margin-bottom="0"
     inkscape:current-layer="svg2" /><path
     style="fill:#4d4d4d;fill-opacity:1"
     d="M 12.229833,64.471729 C 6.5961824,63.308389 1.9931314,58.306579 0.38790043,51.603959 0.02951943,50.107539 2.4743155e-4,48.653309 2.4743155e-4,32.349319 2.4743155e-4,12.516164 -0.05737257,13.333714 1.6198824,9.3635995 3.2248404,5.5645989 6.3183854,2.3414629 9.8151384,0.82503086 l 1.6702856,-0.724351 38.440854,-0.06699 c 42.97721,-0.07489 39.98441,-0.195951 43.32291,1.75241604 1.45,0.846225 2.1982,1.506569 3.65826,3.228648 1.54422,1.821334 1.98955,2.542689 2.80658,4.5460336 1.669122,4.0926625 1.660832,3.9692695 1.587692,23.6775315 l -0.0641,17.25085 -0.56307,1.95963 c -1.582142,5.50632 -5.038782,9.6014 -9.690902,11.48083 l -1.6543,0.66833 -38.07124,0.0357 c -20.939183,0.0196 -38.501938,-0.0532 -39.028346,-0.16193 z m 74.121945,-5.5213 c 2.61065,-0.24849 4.06648,-0.87716 5.73408,-2.47615 1.43334,-1.37437 2.42495,-2.97143 3.13124,-5.04304 l 0.49296,-1.44595 0.059,-17.23326 c 0.0521,-15.244337 0.0192,-17.396043 -0.28429,-18.643742 -0.94809,-3.896554 -3.59634,-7.0464811 -6.8851,-8.1893851 -1.03742,-0.360526 -4.88669,-0.40108 -37.75219,-0.397735 -40.499839,0.0041 -38.134287,-0.09126 -40.532248,1.63427 -1.4239276,1.0246366 -2.9536716,2.8873881 -3.6428186,4.4358241 -1.158343,2.602663 -1.116078,1.907997 -1.193734,19.621098 -0.04507,10.28577 0.0084,17.11323 0.14204,18.13004 0.651999,4.96085 4.156473,8.94987 8.4170796,9.58085 1.731054,0.25637 69.638071,0.28189 72.314081,0.0272 l 0,0 z"
     id="board"
     inkscape:connector-curvature="0" /><path
     style="fill:#ffffff;fill-opacity:1"
     d="M 18.998712,58.995593 C 14.176554,58.901216 13.111825,58.828184 12.38322,58.541824 9.2714204,57.318814 6.836705,54.374503 5.8050147,50.586782 5.4852671,49.412869 5.4603159,48.048504 5.4778552,32.697337 5.4983417,14.76691 5.5390322,13.940245 6.5065276,11.798865 7.5175017,9.5612535 9.5762564,7.2298986 11.333407,6.332858 12.911051,5.5274565 13.228986,5.5210201 51.435889,5.5210201 l 36.625759,0 1.161375,0.5457592 c 2.837168,1.3332607 4.688887,3.4772986 6.021529,6.9720877 0.409145,1.072991 0.414232,1.278311 0.469908,18.974174 l 0.05628,17.889445 -0.511583,1.466349 c -0.946817,2.71386 -2.676878,5.039201 -4.691348,6.305553 -1.740605,1.094189 -2.230553,1.166318 -9.032552,1.329743 -7.118889,0.171038 -53.685925,0.164682 -62.53654,-0.0085 l 0,5e-6 z"
     id="whiteBackground"
     inkscape:connector-curvature="0" /><g
     id="helmet"
     transform="matrix(0.99225,0,0,0.99225,24.453263,9.9937872)"><path
       d="m 29.688,15.901 c -6.447,0 -11.694,4.732 -11.694,10.552 0,2.589 0.573,5.127 1.575,6.967 0.947,1.743 -0.862,3.663 -2.313,5.203 -0.993,1.054 -1.778,1.887 -1.617,2.574 0.069,0.301 0.306,0.528 0.703,0.68 0.499,0.188 1.101,0.289 1.739,0.289 1.806,0 3.591,-0.785 4.778,-2.1 1.446,-1.601 2.056,-3.968 1.759,-6.848 -0.074,-0.736 0.075,-1.368 0.409,-1.738 0.2,-0.224 0.46,-0.343 0.749,-0.343 1.223,0 3.229,2.138 3.755,8.032 0.347,3.869 3.854,5.829 10.425,5.829 0,0 0.528,0 0.629,-0.309 0.145,-0.443 -0.395,-0.936 -1.777,-2.11 -1.319,-1.122 -3.313,-2.817 -3.209,-3.806 0.023,-0.236 0.181,-0.432 0.479,-0.593 1.021,-0.56 1.601,-1.188 1.709,-1.885 0.082,-0.545 -0.129,-1.104 -0.617,-1.619 -0.306,-0.319 -1,-0.783 -1.877,-1.373 -1.283,-0.858 -3.586,-2.405 -3.727,-3.176 h 9.542 c 0.073,0 0.142,-0.027 0.196,-0.079 0.051,-0.054 0.079,-0.124 0.079,-0.196 L 41.381,26.426 C 41.37,20.624 36.122,15.901 29.688,15.901 z m -4.709,12.891 c -0.791,0 -1.438,-0.644 -1.438,-1.435 0,-0.791 0.646,-1.435 1.438,-1.435 0.792,0 1.434,0.644 1.434,1.435 0,0.791 -0.643,1.435 -1.434,1.435 z m 12.828,-0.286 h -8.45 c -0.665,0 -1.207,-0.514 -1.207,-1.147 0,-0.633 0.542,-1.147 1.207,-1.147 h 8.45 c 0.665,0 1.204,0.515 1.204,1.147 0,0.633 -0.539,1.147 -1.204,1.147 z"
       inkscape:connector-curvature="0"
       style="fill:#e74c3c"
       id="path12" /><path
       d="m 24.682,12.367 c -0.066,-0.061 -0.159,-0.084 -0.247,-0.064 -2.575,0.596 -4.908,2.065 -6.569,4.138 -0.061,0.077 -0.075,0.176 -0.045,0.266 0.034,0.09 0.109,0.161 0.203,0.178 0.833,0.183 1.668,0.557 2.485,1.112 0.05,0.034 0.103,0.048 0.156,0.048 0.065,0 0.13,-0.022 0.184,-0.067 1.148,-0.995 2.45,-1.778 3.875,-2.324 0.126,-0.047 0.197,-0.178 0.174,-0.31 -0.184,-0.979 -0.225,-1.9 -0.125,-2.737 0.011,-0.089 -0.024,-0.179 -0.091,-0.24 z"
       inkscape:connector-curvature="0"
       style="fill:#e74c3c"
       id="path14" /><path
       d="M 41.611,4.93 C 37.418,1.707 32.397,0 27.097,0 13.966,0 3.28,10.684 3.28,23.818 c 0,2.972 0.544,5.875 1.616,8.631 0.087,0.229 0.265,0.187 0.358,0.156 0.233,-0.073 9.577,-3.727 9.577,-3.727 0.141,-0.054 0.214,-0.214 0.157,-0.357 -0.58,-1.494 -0.876,-3.078 -0.877,-4.705 0,-7.16 5.825,-12.984 12.985,-12.984 2.893,0 5.626,0.927 7.907,2.684 0.062,0.045 0.134,0.066 0.207,0.057 0.072,-0.011 0.141,-0.047 0.186,-0.106 L 41.661,5.321 C 41.706,5.265 41.725,5.189 41.718,5.117 41.708,5.041 41.668,4.975 41.611,4.93 z"
       inkscape:connector-curvature="0"
       style="fill:#e74c3c"
       inkscape:export-filename="/home/nico/Work/LegionBoard/Media/legionboard.png"
       inkscape:export-xdpi="90"
       inkscape:export-ydpi="90"
       id="path16" /></g></svg>